M48
; DRILL file {KiCad (5.1.9)-1} date 04/09/21 12:03:59
; FORMAT={-:-/ absolute / metric / decimal}
; #@! TF.CreationDate,2021-04-09T12:03:59+02:00
; #@! TF.GenerationSoftware,Kicad,Pcbnew,(5.1.9)-1
; #@! TF.FileFunction,Plated,1,2,PTH
FMAT,2
METRIC
T1C0.400
T2C0.800
T3C0.900
T4C1.000
T5C1.100
T6C1.200
%
G90
G05
T1
X36.703Y-51.435
X38.354Y-109.093
X38.608Y-123.571
X38.862Y-98.298
X39.116Y-116.078
X39.878Y-77.47
X40.132Y-55.753
X40.132Y-70.358
X41.783Y-85.471
X48.006Y-94.615
X48.768Y-85.344
X49.403Y-123.444
X49.657Y-99.568
X50.165Y-116.713
X54.102Y-57.277
X54.483Y-52.07
X57.15Y-113.157
X58.039Y-75.565
X58.166Y-69.469
X58.547Y-93.98
X59.309Y-56.642
X59.436Y-87.757
X61.976Y-64.516
X63.119Y-127.508
X65.913Y-56.007
X66.294Y-125.73
X68.199Y-73.914
X68.58Y-67.691
X73.66Y-91.186
X75.946Y-76.581
X76.327Y-68.072
X81.28Y-126.365
X85.217Y-75.057
X85.344Y-67.056
X85.979Y-119.761
X88.011Y-94.107
X88.519Y-52.197
X90.932Y-118.999
X101.854Y-57.15
X103.378Y-125.349
X108.077Y-62.103
X115.951Y-57.531
X117.094Y-125.222
X123.825Y-100.33
X124.206Y-116.84
X133.731Y-95.25
X134.747Y-58.547
X137.668Y-112.649
X137.795Y-115.443
X138.557Y-125.73
X139.7Y-98.171
X139.827Y-95.123
X143.129Y-110.871
X143.51Y-117.856
X146.812Y-57.912
X148.336Y-86.106
X148.463Y-100.203
X149.479Y-107.95
X150.444Y-83.185
X150.495Y-99.06
X150.622Y-95.25
X150.758Y-88.06
X151.051Y-90.17
X151.13Y-80.899
X151.195Y-71.247
X151.511Y-115.316
X151.844Y-76.502
X152.273Y-90.424
X152.799Y-101.6
X152.799Y-110.363
X153.114Y-97.663
X153.543Y-78.438
X153.924Y-84.328
X154.559Y-102.87
X155.956Y-85.471
X156.083Y-93.98
X156.21Y-105.41
X156.337Y-69.85
X156.416Y-96.38
X157.226Y-75.311
X158.036Y-77.47
X158.496Y-74.93
X158.623Y-68.199
X158.798Y-83.122
X159.004Y-79.248
X159.004Y-125.73
X159.131Y-81.102
X159.512Y-86.868
X160.655Y-58.039
X162.603Y-79.181
X163.02Y-81.534
X163.02Y-83.947
X163.02Y-86.741
X163.02Y-98.171
X163.02Y-102.362
X164.465Y-105.537
X165.735Y-73.66
X166.164Y-102.87
X167.259Y-85.979
X167.513Y-76.2
X167.513Y-72.517
X169.085Y-89.281
X169.291Y-78.994
X169.672Y-125.857
X170.561Y-57.658
X172.974Y-96.012
X172.974Y-107.569
X173.228Y-94.234
X174.498Y-110.617
X174.625Y-71.12
X174.625Y-85.217
X175.006Y-114.427
X175.435Y-82.169
X175.895Y-86.36
X176.101Y-100.406
X176.276Y-83.693
X176.4Y-90.552
X176.53Y-79.883
X176.657Y-84.963
X176.657Y-98.933
X176.846Y-103.821
X177.8Y-108.077
X177.927Y-114.3
X179.832Y-62.611
X181.356Y-96.52
X182.499Y-125.603
X183.34Y-93.571
X183.614Y-91.719
X184.658Y-78.105
X185.928Y-82.55
X186.182Y-80.01
X186.563Y-73.66
X186.817Y-83.693
X187.198Y-78.915
X187.629Y-110.128
X187.706Y-111.125
X187.706Y-91.821
X188.214Y-89.027
X188.595Y-80.01
X188.595Y-90.17
X188.595Y-108.204
X188.849Y-96.266
X188.849Y-104.013
X189.23Y-85.217
X190.373Y-111.887
X190.881Y-105.283
X191.643Y-109.474
X191.77Y-116.967
X191.897Y-115.189
X193.04Y-111.887
X193.04Y-116.459
X193.548Y-95.377
X193.869Y-83.961
X194.056Y-68.834
X194.31Y-97.79
X194.437Y-110.061
X194.613Y-79.85
X195.072Y-82.55
X195.199Y-100.203
X195.58Y-85.471
X195.841Y-92.89
X196.088Y-102.616
X196.088Y-76.327
X196.633Y-87.89
X196.929Y-90.3
X197.025Y-101.727
X197.104Y-75.057
X197.231Y-80.47
X197.612Y-91.44
X197.993Y-109.601
X198.882Y-97.79
X199.263Y-94.615
X199.771Y-100.33
X200.581Y-103.124
X200.66Y-57.785
X201.041Y-101.219
X201.516Y-81.28
X202.057Y-87.63
X202.057Y-76.66
X202.103Y-83.693
X202.136Y-80.391
X202.184Y-72.263
X202.819Y-77.597
X202.946Y-88.392
X203.2Y-67.31
X203.327Y-90.043
X204.089Y-112.268
X204.343Y-83.058
X204.47Y-79.502
X204.47Y-115.062
X204.61Y-89.202
X204.724Y-72.39
X205.486Y-125.603
X205.994Y-77.597
X205.994Y-100.838
X206.121Y-86.01
X206.375Y-113.792
X207.01Y-78.613
X207.137Y-85.09
X207.264Y-73.787
X207.899Y-82.931
X208.661Y-95.377
X210.439Y-100.965
X211.328Y-84.201
X211.588Y-80.989
X212.027Y-92.404
X212.409Y-72.833
X212.725Y-71.247
X212.804Y-96.266
X212.804Y-106.68
X213.233Y-76.327
X213.233Y-115.697
X213.403Y-81.627
X213.408Y-78.156
X213.633Y-94.469
X213.741Y-116.967
X213.747Y-82.566
X213.774Y-91.059
X213.789Y-92.451
X214.259Y-81.111
X214.376Y-85.011
X214.394Y-78.324
X215.011Y-65.484
X215.172Y-78.952
X215.38Y-89.272
X216.408Y-100.838
X217.17Y-66.294
X217.551Y-57.658
X219.075Y-82.423
X219.202Y-84.963
X219.456Y-90.17
X219.583Y-87.63
X219.837Y-74.93
X219.964Y-83.82
X221.107Y-86.106
X221.361Y-72.263
X221.361Y-100.965
X222.758Y-74.422
X223.393Y-125.603
X224.79Y-116.84
X224.917Y-91.44
X226.949Y-88.9
X227.203Y-117.602
X227.33Y-63.373
X235.077Y-77.343
X235.204Y-69.342
X235.458Y-58.039
X235.839Y-85.09
X235.839Y-97.917
X235.966Y-78.867
X236.855Y-125.603
X236.982Y-77.597
X237.264Y-67.649
X240.156Y-115.062
X242.57Y-76.2
X242.697Y-85.09
X243.634Y-82.549
X244.094Y-117.348
X244.221Y-74.168
X245.364Y-78.105
X246.507Y-116.84
X247.523Y-71.755
X249.174Y-110.363
X251.714Y-114.935
X252.095Y-58.42
X253.111Y-126.238
X262.255Y-113.538
X262.636Y-64.135
X263.017Y-72.898
X263.398Y-96.139
X263.652Y-80.772
X263.906Y-126.873
T2
X38.1Y-82.55
X48.26Y-82.55
X49.53Y-102.87
X50.8Y-105.41
X53.34Y-99.06
X55.88Y-63.54
X55.88Y-66.04
X55.88Y-81.28
X55.88Y-83.78
X60.96Y-83.82
X62.23Y-59.69
X62.23Y-69.85
X62.23Y-77.47
X62.23Y-87.63
X62.23Y-99.06
X63.5Y-96.52
X66.04Y-59.69
X66.04Y-69.85
X66.04Y-77.47
X66.04Y-83.82
X66.04Y-87.63
X66.04Y-91.44
X66.04Y-96.44
X66.04Y-100.33
X66.04Y-110.49
X69.85Y-78.74
X69.85Y-81.28
X69.85Y-83.82
X69.85Y-86.36
X69.85Y-88.9
X69.85Y-91.44
X69.85Y-93.98
X69.85Y-96.52
X69.85Y-99.06
X69.85Y-101.6
X69.85Y-104.14
X69.85Y-106.68
X69.85Y-109.22
X69.85Y-111.76
X71.12Y-57.15
X71.12Y-64.77
X71.12Y-72.39
X73.66Y-54.61
X73.66Y-62.23
X73.66Y-69.85
X73.95Y-98.77
X76.2Y-57.15
X76.2Y-64.77
X76.2Y-72.39
X77.47Y-78.74
X77.47Y-81.28
X77.47Y-83.82
X77.47Y-86.36
X77.47Y-88.9
X77.47Y-91.44
X77.47Y-93.98
X77.47Y-96.52
X77.47Y-99.06
X77.47Y-101.6
X77.47Y-104.14
X77.47Y-106.68
X77.47Y-109.22
X77.47Y-111.76
X82.55Y-52.07
X82.55Y-55.88
X82.55Y-59.69
X82.55Y-63.5
X82.55Y-67.31
X82.55Y-71.12
X82.55Y-74.93
X82.55Y-78.74
X82.55Y-82.55
X82.55Y-86.36
X82.55Y-90.17
X82.55Y-93.98
X82.55Y-97.79
X82.55Y-101.6
X82.55Y-105.41
X82.55Y-109.22
X82.55Y-113.03
X82.55Y-116.84
X82.55Y-120.65
X82.55Y-124.46
X82.55Y-128.27
X86.741Y-84.582
X88.22Y-81.28
X91.437Y-73.025
X92.71Y-52.07
X92.71Y-55.88
X92.71Y-59.69
X92.71Y-63.5
X92.71Y-67.31
X92.71Y-71.12
X92.71Y-74.93
X92.71Y-78.74
X92.71Y-82.55
X92.71Y-86.36
X92.71Y-90.17
X92.71Y-93.98
X92.71Y-97.79
X92.71Y-101.6
X92.71Y-105.41
X92.71Y-109.22
X92.71Y-113.03
X92.71Y-116.84
X92.71Y-120.65
X92.71Y-124.46
X92.71Y-128.27
X193.04Y-106.68
X198.04Y-106.68
T3
X44.45Y-102.87
X44.45Y-104.14
X44.45Y-105.41
X44.45Y-106.68
X71.2Y-117.35
X71.2Y-120.65
X73.7Y-117.35
X73.7Y-120.65
X76.2Y-117.35
X76.2Y-120.65
X206.377Y-104.14
X206.377Y-106.64
X206.377Y-109.14
X209.677Y-104.14
X209.677Y-106.64
X209.677Y-109.14
X216.664Y-104.14
X216.664Y-106.64
X216.664Y-109.14
X219.964Y-104.14
X219.964Y-106.64
X219.964Y-109.14
X222.29Y-119.126
X222.29Y-122.426
X224.79Y-119.126
X224.79Y-122.426
X227.29Y-119.126
X227.29Y-122.426
T4
X45.72Y-87.63
X45.72Y-90.17
X45.72Y-92.71
X57.15Y-96.52
X57.15Y-99.06
X57.15Y-101.6
X59.69Y-96.52
X59.69Y-99.06
X59.69Y-101.6
X97.79Y-66.04
X97.79Y-68.58
X97.79Y-71.12
X97.79Y-73.66
X97.79Y-76.2
X97.79Y-78.74
X97.79Y-81.28
X97.79Y-83.82
X97.79Y-86.36
X97.79Y-88.9
X97.79Y-91.44
X97.79Y-93.98
X97.79Y-96.52
X97.79Y-99.06
X97.79Y-101.6
X97.79Y-104.14
X97.79Y-106.68
X97.79Y-109.22
X97.79Y-111.76
X97.79Y-114.3
X120.65Y-69.85
X120.65Y-72.39
X120.65Y-74.93
X120.65Y-77.47
X120.65Y-80.01
X120.65Y-82.55
X120.65Y-85.09
X120.65Y-87.63
X120.65Y-90.17
X120.65Y-92.71
X120.65Y-95.25
X120.65Y-97.79
X120.65Y-100.33
X120.65Y-102.87
X120.65Y-105.41
X120.65Y-107.95
X120.65Y-110.49
X120.65Y-113.03
X120.65Y-115.57
X120.65Y-118.11
X135.89Y-69.85
X135.89Y-72.39
X135.89Y-74.93
X135.89Y-77.47
X135.89Y-80.01
X135.89Y-82.55
X135.89Y-85.09
X135.89Y-87.63
X135.89Y-90.17
X135.89Y-92.71
X135.89Y-95.25
X135.89Y-97.79
X135.89Y-100.33
X135.89Y-102.87
X135.89Y-105.41
X135.89Y-107.95
X135.89Y-110.49
X135.89Y-113.03
X135.89Y-115.57
X135.89Y-118.11
X146.05Y-69.85
X146.05Y-72.39
X146.05Y-74.93
X146.05Y-77.47
X146.05Y-80.01
X146.05Y-82.55
X146.05Y-85.09
X146.05Y-87.63
X146.05Y-90.17
X146.05Y-92.71
X146.05Y-95.25
X146.05Y-97.79
X146.05Y-100.33
X146.05Y-102.87
X146.05Y-105.41
X146.05Y-107.95
X146.05Y-110.49
X146.05Y-113.03
X146.05Y-115.57
X146.05Y-118.11
X161.29Y-69.85
X161.29Y-72.39
X161.29Y-74.93
X161.29Y-77.47
X161.29Y-80.01
X161.29Y-82.55
X161.29Y-85.09
X161.29Y-87.63
X161.29Y-90.17
X161.29Y-92.71
X161.29Y-95.25
X161.29Y-97.79
X161.29Y-100.33
X161.29Y-102.87
X161.29Y-105.41
X161.29Y-107.95
X161.29Y-110.49
X161.29Y-113.03
X161.29Y-115.57
X161.29Y-118.11
X171.45Y-69.85
X171.45Y-72.39
X171.45Y-74.93
X171.45Y-77.47
X171.45Y-80.01
X171.45Y-82.55
X171.45Y-85.09
X171.45Y-87.63
X171.45Y-90.17
X171.45Y-92.71
X171.45Y-95.25
X171.45Y-97.79
X171.45Y-100.33
X171.45Y-102.87
X179.07Y-69.85
X179.07Y-72.39
X179.07Y-74.93
X179.07Y-77.47
X179.07Y-80.01
X179.07Y-82.55
X179.07Y-85.09
X179.07Y-87.63
X179.07Y-90.17
X179.07Y-92.71
X179.07Y-95.25
X179.07Y-97.79
X179.07Y-100.33
X179.07Y-102.87
X179.07Y-119.38
X179.07Y-121.92
X181.61Y-119.38
X181.61Y-121.92
X184.15Y-119.38
X184.15Y-121.92
X186.69Y-119.38
X186.69Y-121.92
X189.23Y-119.38
X189.23Y-121.92
X191.77Y-69.85
X191.77Y-72.39
X191.77Y-74.93
X191.77Y-77.47
X191.77Y-80.01
X191.77Y-82.55
X191.77Y-85.09
X191.77Y-87.63
X191.77Y-90.17
X191.77Y-92.71
X191.77Y-119.38
X191.77Y-121.92
X194.31Y-119.38
X194.31Y-121.92
X196.85Y-119.38
X196.85Y-121.92
X199.39Y-69.85
X199.39Y-72.39
X199.39Y-74.93
X199.39Y-77.47
X199.39Y-80.01
X199.39Y-82.55
X199.39Y-85.09
X199.39Y-87.63
X199.39Y-90.17
X199.39Y-92.71
X199.39Y-119.38
X199.39Y-121.92
X201.93Y-119.38
X201.93Y-121.92
X209.55Y-69.85
X209.55Y-72.39
X209.55Y-74.93
X209.55Y-77.47
X209.55Y-80.01
X209.55Y-82.55
X209.55Y-85.09
X209.55Y-87.63
X209.55Y-90.17
X209.55Y-92.71
X217.17Y-69.85
X217.17Y-72.39
X217.17Y-74.93
X217.17Y-77.47
X217.17Y-80.01
X217.17Y-82.55
X217.17Y-85.09
X217.17Y-87.63
X217.17Y-90.17
X217.17Y-92.71
X232.41Y-69.85
X232.41Y-72.39
X232.41Y-74.93
X232.41Y-77.47
X232.41Y-80.01
X232.41Y-82.55
X232.41Y-85.09
X238.76Y-119.38
X238.76Y-121.92
X240.03Y-69.85
X240.03Y-72.39
X240.03Y-74.93
X240.03Y-77.47
X240.03Y-80.01
X240.03Y-82.55
X240.03Y-85.09
X241.3Y-119.38
X241.3Y-121.92
X243.84Y-119.38
X243.84Y-121.92
X246.38Y-119.38
X246.38Y-121.92
X248.92Y-119.38
X248.92Y-121.92
X250.19Y-69.85
X250.19Y-72.39
X250.19Y-74.93
X250.19Y-77.47
X250.19Y-80.01
X250.19Y-82.55
X250.19Y-85.09
X251.46Y-119.38
X251.46Y-121.92
X257.81Y-69.85
X257.81Y-72.39
X257.81Y-74.93
X257.81Y-77.47
X257.81Y-80.01
X257.81Y-82.55
X257.81Y-85.09
T5
X41.125Y-120.65
X41.125Y-125.15
X47.625Y-120.65
X47.625Y-125.15
X55.88Y-71.12
X55.88Y-73.66
X55.88Y-76.2
T6
X36.83Y-66.04
X49.53Y-66.04
T4
X44.8Y-56.15G85X44.8Y-58.15
G05
X46.8Y-61.85G85X48.8Y-61.85
G05
X50.8Y-56.15G85X50.8Y-58.15
G05
T0
M30
